<svg width="482" height="128" viewBox="0 0 482 128" fill="none" xmlns="http://www.w3.org/2000/svg">
<g clip-path="url(#clip0_1211_22)">
<path d="M0 59.2699L6.99 73.9999L15.09 57.0599L6.63 45.6499L0 59.2699Z" fill="url(#paint0_linear_1211_22)"/>
<path d="M37.9201 8.84C39.7601 4.79 36.8101 0 32.4001 0C29.8201 0 27.6101 1.47 26.8701 3.68L15.8301 27.24L23.1901 40.86L37.9201 8.83V8.84Z" fill="url(#paint1_linear_1211_22)"/>
<path d="M12.8799 85.78L19.8799 100.5L30.1899 78.05L21.7199 66.27L12.8799 85.78Z" fill="url(#paint2_linear_1211_22)"/>
<path d="M57.4302 0C54.8502 0 52.6402 1.47 51.5402 3.68L28.7202 51.54L36.0802 65.16L62.5802 8.84C64.7902 4.79 61.8502 0 57.4302 0Z" fill="url(#paint3_linear_1211_22)"/>
<path d="M32.3998 127.01C32.3998 126.64 32.7698 126.64 32.7698 126.27L88.3498 8.84C90.1898 4.79 87.2498 0 82.8298 0C80.2598 0 78.0498 1.47 77.3098 3.68L51.5398 58.53C49.3298 63.32 42.3398 63.32 40.1298 58.53L14.3598 3.68C13.2598 1.47 11.0498 0 8.83976 0C4.41976 0 1.09976 4.79 3.30976 8.84L34.5998 75.11C37.5498 81.37 37.5498 88.73 34.5998 94.99L26.4998 112.29L32.3898 127.02L32.3998 127.01Z" fill="url(#paint4_linear_1211_22)"/>
<path d="M128.89 37.9998C128.89 37.2298 129.51 36.5298 130.36 36.5298H139.54C140.31 36.5298 141.01 37.2198 141.01 37.9998V79.1898H159.37C160.22 79.1898 160.84 79.8798 160.84 80.6598V89.0698C160.84 89.8398 160.22 90.5398 159.37 90.5398H130.37C129.52 90.5398 128.9 89.8498 128.9 89.0698V38.0098L128.89 37.9998Z" fill="#012A3D"/>
<path d="M196.23 37.9998C196.23 37.2298 196.92 36.5298 197.7 36.5298H206.96C207.73 36.5298 208.43 37.2198 208.43 37.9998V89.0598C208.43 89.8298 207.74 90.5298 206.96 90.5298H197.7C196.93 90.5298 196.23 89.8398 196.23 89.0598V37.9998Z" fill="#012A3D"/>
<path d="M256.55 47.8798H245.52C244.67 47.8798 244.05 47.1898 244.05 46.4098V37.9998C244.05 37.2298 244.67 36.5298 245.52 36.5298H279.77C280.62 36.5298 281.24 37.2198 281.24 37.9998V46.4098C281.24 47.1798 280.62 47.8798 279.77 47.8798H268.74V89.0698C268.74 89.8398 268.05 90.5398 267.27 90.5398H258.01C257.24 90.5398 256.54 89.8498 256.54 89.0698V47.8798H256.55Z" fill="#012A3D"/>
<path d="M316.87 37.9998C316.87 37.2298 317.56 36.5298 318.34 36.5298H327.6C328.37 36.5298 329.07 37.2198 329.07 37.9998V89.0598C329.07 89.8298 328.38 90.5298 327.6 90.5298H318.34C317.57 90.5298 316.87 89.8398 316.87 89.0598V37.9998Z" fill="#012A3D"/>
<path d="M370.24 37.9998C370.24 37.2298 370.86 36.5298 371.71 36.5298H403.64C404.49 36.5298 405.11 37.2198 405.11 37.9998V46.4098C405.11 47.1798 404.49 47.8798 403.64 47.8798H382.27V58.9898H399.86C400.63 58.9898 401.33 59.6798 401.33 60.4598V68.8698C401.33 69.6398 400.64 70.3398 399.86 70.3398H382.27V89.0798C382.27 89.8498 381.58 90.5498 380.8 90.5498H371.7C370.85 90.5498 370.23 89.8598 370.23 89.0798V38.0198L370.24 37.9998Z" fill="#012A3D"/>
<path d="M470.29 37.33L461.25 57.86C460.75 58.99 459.15 58.99 458.65 57.86L449.61 37.33C449.38 36.81 448.87 36.48 448.31 36.48H439.58C438.55 36.48 437.86 37.54 438.28 38.48L453.78 73.68C453.94 74.05 453.94 74.46 453.78 74.83L447.74 88.54C447.33 89.48 448.01 90.54 449.04 90.54H457.77C458.33 90.54 458.84 90.21 459.07 89.69L481.61 38.49C482.02 37.55 481.34 36.49 480.31 36.49H471.58C471.02 36.49 470.51 36.82 470.28 37.34L470.29 37.33Z" fill="#012A3D"/>
</g>
<defs>
<linearGradient id="paint0_linear_1211_22" x1="8.0326" y1="73.1207" x2="8.0326" y2="-12.4665" gradientUnits="userSpaceOnUse">
<stop stop-color="#008FB1"/>
<stop offset="1" stop-color="#2DBAD4"/>
</linearGradient>
<linearGradient id="paint1_linear_1211_22" x1="27.6257" y1="73.1208" x2="27.6257" y2="-12.4664" gradientUnits="userSpaceOnUse">
<stop stop-color="#008FB1"/>
<stop offset="1" stop-color="#2DBAD4"/>
</linearGradient>
<linearGradient id="paint2_linear_1211_22" x1="22.0275" y1="73.1208" x2="22.0275" y2="-12.4664" gradientUnits="userSpaceOnUse">
<stop stop-color="#008FB1"/>
<stop offset="1" stop-color="#2DBAD4"/>
</linearGradient>
<linearGradient id="paint3_linear_1211_22" x1="46.5346" y1="73.1208" x2="46.5346" y2="-12.4664" gradientUnits="userSpaceOnUse">
<stop stop-color="#008FB1"/>
<stop offset="1" stop-color="#2DBAD4"/>
</linearGradient>
<linearGradient id="paint4_linear_1211_22" x1="46.2232" y1="117.283" x2="46.2232" y2="27.9636" gradientUnits="userSpaceOnUse">
<stop stop-color="#008FB1"/>
<stop offset="1" stop-color="#2DBAD4"/>
</linearGradient>
<clipPath id="clip0_1211_22">
<rect width="481.74" height="127.01" fill="white"/>
</clipPath>
</defs>
</svg>
